<svg width="929" height="724" viewBox="0 0 929 724" fill="none" xmlns="http://www.w3.org/2000/svg">
<path d="M829.583 27.998C829.476 27.998 829.37 27.9586 829.288 27.8816L802.706 2.78937H662.418C662.188 2.78937 662 2.61176 662 2.39469C662 2.17761 662.188 2 662.418 2H802.88C802.991 2 803.097 2.04144 803.175 2.11643L829.878 27.3251C830.041 27.479 830.041 27.7296 829.878 27.8836C829.796 27.9605 829.69 28 829.583 28V27.998Z" fill="#FF9900"/>
<path d="M67 126.913L94.1288 100H341V100.207H94.2146L67.2091 127L67 126.913Z" fill="#FF9900"/>
<path d="M853 676.087L825.871 703H579V702.793H825.785L852.791 676L853 676.087Z" fill="#FF9900"/>
<path d="M67.0416 21.9584L43 46L43.1474 46.148L67.189 22.1063L67.0416 21.9584Z" fill="#FF9900"/>
<path d="M800.207 135C800.153 135 800.102 134.979 800.06 134.94C799.98 134.859 799.98 134.729 800.06 134.649L815.648 119.06C815.729 118.98 815.859 118.98 815.94 119.06C816.02 119.141 816.02 119.271 815.94 119.352L800.352 134.94C800.311 134.981 800.259 135 800.205 135H800.207Z" fill="#FF9900"/>
<path d="M774.789 58L765 67.789V68H766.171L774.998 59.1759V58H774.787H774.789ZM766.421 58L765 59.4228V60.8075L767.805 58H766.421ZM770.604 58L765 63.6059V64.9906L771.988 58H770.601H770.604ZM770.357 68L775 63.3591V61.9744L768.974 68H770.359H770.357ZM774.54 68L774.998 67.5422V66.1598L773.155 68H774.54Z" fill="#FF9900"/>
<path d="M15.1262 44V28.8738H0V28.1241H15.1262V13H15.8738V28.1241H31V28.8738H15.8738V44H15.1262Z" fill="#FF9900"/>
<path d="M913.126 31V15.8738H898V15.1241H913.126V0H913.874V15.1241H929V15.8738H913.874V31H913.126Z" fill="#FF9900"/>
<path d="M78 704H186V703H78V704Z" fill="#FF9900"/>
<path d="M75.0014 700C76.6542 700 78 701.346 78 703.001C78 704.657 76.6542 706 75.0014 706C73.3487 706 72 704.654 72 703.001C72 701.349 73.346 700 75.0014 700ZM75.0014 705.731C76.5062 705.731 77.7308 704.506 77.7308 703.001C77.7308 701.497 76.5062 700.269 75.0014 700.269C73.4967 700.269 72.2692 701.494 72.2692 703.001C72.2692 704.509 73.494 705.731 75.0014 705.731Z" fill="#FF9900"/>
<path d="M43 724H119V723H43V724Z" fill="#FF9900"/>
</svg>
