<svg width="1200" height="820" viewBox="0 0 1200 820" fill="none" xmlns="http://www.w3.org/2000/svg">
<path d="M1075.48 35.9975C1075.35 35.9975 1075.21 35.9474 1075.11 35.8497L1041.88 4.0019H866.523C866.235 4.0019 866 3.77647 866 3.50095C866 3.22543 866.235 3 866.523 3H1042.1C1042.24 3 1042.37 3.0526 1042.47 3.14778L1075.85 35.1434C1076.05 35.3387 1076.05 35.6569 1075.85 35.8522C1075.75 35.9499 1075.61 36 1075.48 36V35.9975Z" fill="#FF9900"/>
<path d="M123 158.89L156.862 125H465V125.261H156.969L123.261 159L123 158.89Z" fill="#FF9900"/>
<path d="M1105 766.11L1071.14 800H763V799.739H1071.03L1104.74 766L1105 766.11Z" fill="#FF9900"/>
<path d="M123.406 27.5944L93 58L93.1841 58.1851L123.59 27.7796L123.406 27.5944Z" fill="#FF9900"/>
<path d="M1039.26 169C1039.19 169 1039.13 168.974 1039.08 168.925C1038.97 168.824 1038.97 168.662 1039.08 168.561L1058.56 149.076C1058.66 148.975 1058.82 148.975 1058.92 149.076C1059.03 149.176 1059.03 149.339 1058.92 149.44L1039.44 168.925C1039.39 168.977 1039.32 169 1039.26 169H1039.26Z" fill="#FF9900"/>
<path d="M1006.75 73L995 84.7469V85H996.406L1007 74.4111V73H1006.74H1006.75ZM996.705 73L995 74.7074V76.3689L998.366 73H996.705ZM1001.72 73L995 79.7271V81.3887L1003.39 73H1001.72H1001.72ZM1001.43 85L1007 79.4309V77.7693L999.769 85H1001.43H1001.43ZM1006.45 85L1007 84.4506V82.7917L1004.79 85H1006.45Z" fill="#FF9900"/>
<path d="M58.0297 55V35.9703H39V35.0271H58.0297V16H58.9703V35.0271H78V35.9703H58.9703V55H58.0297Z" fill="#FF9900"/>
<path d="M1180.03 39V19.9703H1161V19.0271H1180.03V0H1180.97V19.0271H1200V19.9703H1180.97V39H1180.03Z" fill="#FF9900"/>
<path d="M137 795H272V794H137V795Z" fill="#FF9900"/>
<path d="M133.502 791C135.43 791 137 792.57 137 794.502C137 796.433 135.43 798 133.502 798C131.573 798 130 796.43 130 794.502C130 792.573 131.57 791 133.502 791ZM133.502 797.686C135.257 797.686 136.686 796.257 136.686 794.502C136.686 792.746 135.257 791.314 133.502 791.314C131.746 791.314 130.314 792.743 130.314 794.502C130.314 796.26 131.743 797.686 133.502 797.686Z" fill="#FF9900"/>
<path d="M93 820H188V819H93V820Z" fill="#FF9900"/>
<path d="M21.9574 585V563.529H0V562.468H21.9574V541H23.0426V562.468H45V563.529H23.0426V585H21.9574Z" fill="#FF9900"/>
</svg>
