<svg width="1783" height="1230" viewBox="0 0 1783 1230" fill="none" xmlns="http://www.w3.org/2000/svg">
<path d="M1600.22 54.9962C1600.02 54.9962 1599.82 54.9203 1599.67 54.7723L1549.82 6.51803H1286.78C1286.35 6.51803 1286 6.17647 1286 5.75901C1286 5.34156 1286.35 5 1286.78 5H1550.15C1550.36 5 1550.56 5.0797 1550.7 5.22391L1600.77 53.7021C1601.08 53.9981 1601.08 54.4801 1600.77 54.7761C1600.62 54.9241 1600.42 55 1600.22 55V54.9962Z" fill="#FF9900"/>
<path d="M185 238.835L235.792 188H698V188.392H235.953L185.391 239L185 238.835Z" fill="#FF9900"/>
<path d="M1601 1149.16L1550.21 1200H1088V1199.61H1550.05L1600.61 1149L1601 1149.16Z" fill="#FF9900"/>
<path d="M185.962 41.0381L140 87L140.276 87.2777L186.238 41.3158L185.962 41.0381Z" fill="#FF9900"/>
<path d="M1559.39 254C1559.29 254 1559.19 253.961 1559.11 253.888C1558.96 253.736 1558.96 253.492 1559.11 253.341L1588.34 224.113C1588.49 223.962 1588.74 223.962 1588.89 224.113C1589.04 224.265 1589.04 224.509 1588.89 224.66L1559.66 253.888C1559.58 253.965 1559.49 254 1559.38 254H1559.39Z" fill="#FF9900"/>
<path d="M1510.62 110L1493 127.62V128H1495.11L1511 112.117V110H1510.62H1510.62ZM1495.56 110L1493 112.561V115.053L1498.05 110H1495.56ZM1503.09 110L1493 120.091V122.583L1505.58 110H1503.08H1503.09ZM1502.64 128L1511 119.646V117.154L1500.15 128H1502.65H1502.64ZM1510.17 128L1511 127.176V124.688L1507.68 128H1510.17Z" fill="#FF9900"/>
<path d="M87.7886 83V54.2114H59V52.7846H87.7886V24H89.2114V52.7846H118V54.2114H89.2114V83H87.7886Z" fill="#FF9900"/>
<path d="M1752.28 60V30.7235H1723V29.2724H1752.28V0H1753.72V29.2724H1783V30.7235H1753.72V60H1752.28Z" fill="#FF9900"/>
<path d="M266 1193H469V1191H266V1193Z" fill="#FF9900"/>
<path d="M261.503 1186C264.533 1186 267 1188.47 267 1191.5C267 1194.54 264.533 1197 261.503 1197C258.473 1197 256 1194.53 256 1191.5C256 1188.47 258.468 1186 261.503 1186ZM261.503 1196.51C264.261 1196.51 266.507 1194.26 266.507 1191.5C266.507 1188.74 264.261 1186.49 261.503 1186.49C258.744 1186.49 256.493 1188.74 256.493 1191.5C256.493 1194.27 258.739 1196.51 261.503 1196.51Z" fill="#FF9900"/>
<path d="M200 1230H343V1228H200V1230Z" fill="#FF9900"/>
<path d="M33.18 878V845.794H0V844.202H33.18V812H34.82V844.202H68V845.794H34.82V878H33.18Z" fill="#FF9900"/>
</svg>
