<svg width="304" height="1662" viewBox="0 0 304 1662" fill="none" xmlns="http://www.w3.org/2000/svg">
<path d="M303.729 59.9988C303.66 59.9988 303.591 59.9745 303.538 59.9271L286.292 44.4858H195.271C195.122 44.4858 195 44.3765 195 44.2429C195 44.1093 195.122 44 195.271 44H286.404C286.476 44 286.545 44.0255 286.596 44.0717L303.921 59.5847C304.026 59.6794 304.026 59.8336 303.921 59.9283C303.868 59.9757 303.799 60 303.729 60V59.9988Z" fill="#FF9900"/>
<path d="M23 80.9452L40.5248 64H200V64.1306H40.5802L23.1351 81L23 80.9452Z" fill="#FF9900"/>
<path d="M303 1645.05L285.475 1662H126V1661.87H285.42L302.865 1645L303 1645.05Z" fill="#FF9900"/>
<path d="M52 1642H122V1641H52V1642Z" fill="#FF9900"/>
<path d="M50.001 1639C51.1028 1639 52 1639.9 52 1641C52 1642.1 51.1028 1643 50.001 1643C48.8991 1643 48 1642.1 48 1641C48 1639.9 48.8973 1639 50.001 1639ZM50.001 1642.82C51.0041 1642.82 51.8205 1642 51.8205 1641C51.8205 1640 51.0041 1639.18 50.001 1639.18C48.9978 1639.18 48.1795 1640 48.1795 1641C48.1795 1642.01 48.996 1642.82 50.001 1642.82Z" fill="#FF9900"/>
<path d="M30 1655H79V1654H30V1655Z" fill="#FF9900"/>
<path d="M265.142 211C265.105 211 265.07 210.986 265.042 210.959C264.986 210.903 264.986 210.814 265.042 210.758L275.758 200.042C275.814 199.986 275.903 199.986 275.958 200.042C276.014 200.097 276.014 200.187 275.958 200.242L265.242 210.959C265.214 210.987 265.178 211 265.141 211H265.142Z" fill="#FF9900"/>
<path d="M165.852 37L159 43.8523V44H159.82L165.998 37.8232V37H165.851H165.852ZM159.994 37L159 37.996V38.9652L160.964 37H159.994ZM162.923 37L159 40.9241V41.8934L163.892 37H162.921H162.923ZM162.75 44L166 40.7513V39.7821L161.782 44H162.751H162.75ZM165.678 44L165.998 43.6795V42.7119L164.709 44H165.678Z" fill="#FF9900"/>
<path d="M293.759 20V10.2412H284V9.75748H293.759V0H294.241V9.75748H304V10.2412H294.241V20H293.759Z" fill="#FF9900"/>
<path d="M25.7588 28V18.2412H16V17.7575H25.7588V8H26.2412V17.7575H36V18.2412H26.2412V28H25.7588Z" fill="#FF9900"/>
</svg>
