<svg width="600" height="1650" viewBox="0 0 600 1650" fill="none" xmlns="http://www.w3.org/2000/svg">
<path d="M536.729 17.9988C536.66 17.9988 536.591 17.9745 536.538 17.9271L519.292 2.48577H428.271C428.122 2.48577 428 2.37647 428 2.24288C428 2.1093 428.122 2 428.271 2H519.404C519.476 2 519.545 2.0255 519.596 2.07165L536.921 17.5847C537.026 17.6794 537.026 17.8336 536.921 17.9283C536.868 17.9757 536.799 18 536.729 18V17.9988Z" fill="#FF9900"/>
<path d="M44 80.9452L61.5248 64H221V64.1306H61.5802L44.1351 81L44 80.9452Z" fill="#FF9900"/>
<path d="M551 1620.05L533.475 1637H374V1636.87H533.42L550.865 1620L551 1620.05Z" fill="#FF9900"/>
<path d="M43.5564 14.4436L28 30L28.0952 30.0956L43.6515 14.5392L43.5564 14.4436Z" fill="#FF9900"/>
<path d="M517.142 88C517.105 88 517.07 87.9858 517.042 87.9588C516.986 87.9034 516.986 87.8138 517.042 87.7584L527.758 77.0416C527.814 76.9861 527.903 76.9861 527.958 77.0416C528.014 77.097 528.014 77.1865 527.958 77.242L517.242 87.9588C517.214 87.9872 517.178 88 517.141 88H517.142Z" fill="#FF9900"/>
<path d="M500.852 37L494 43.8523V44H494.82L500.998 37.8232V37H500.851H500.852ZM494.994 37L494 37.996V38.9652L495.964 37H494.994ZM497.923 37L494 40.9241V41.8934L498.892 37H497.921H497.923ZM497.75 44L501 40.7513V39.7821L496.782 44H497.751H497.75ZM500.678 44L500.998 43.6795V42.7119L499.709 44H500.678Z" fill="#FF9900"/>
<path d="M9.75883 28V18.2412H0V17.7575H9.75883V8H10.2412V17.7575H20V18.2412H10.2412V28H9.75883Z" fill="#FF9900"/>
<path d="M589.759 20V10.2412H580V9.75748H589.759V0H590.241V9.75748H600V10.2412H590.241V20H589.759Z" fill="#FF9900"/>
<path d="M50 1637H120V1636H50V1637Z" fill="#FF9900"/>
<path d="M48.001 1634C49.1028 1634 50 1634.9 50 1636C50 1637.1 49.1028 1638 48.001 1638C46.8991 1638 46 1637.1 46 1636C46 1634.9 46.8973 1634 48.001 1634ZM48.001 1637.82C49.0041 1637.82 49.8205 1637 49.8205 1636C49.8205 1635 49.0041 1634.18 48.001 1634.18C46.9978 1634.18 46.1795 1635 46.1795 1636C46.1795 1637.01 46.996 1637.82 48.001 1637.82Z" fill="#FF9900"/>
<path d="M28 1650H77V1649H28V1650Z" fill="#FF9900"/>
</svg>
