<svg width="728" height="1681" viewBox="0 0 728 1681" fill="none" xmlns="http://www.w3.org/2000/svg">
<path d="M650.672 21.9985C650.589 21.9985 650.505 21.9681 650.441 21.9089L629.555 2.60721H519.329C519.148 2.60721 519 2.47059 519 2.30361C519 2.13662 519.148 2 519.329 2H629.691C629.779 2 629.862 2.03188 629.923 2.08956L650.904 21.4808C651.032 21.5992 651.032 21.792 650.904 21.9104C650.84 21.9696 650.756 22 650.672 22V21.9985Z" fill="#FF9900"/>
<path d="M53 98.9322L74.2872 78H268V78.1613H74.3545L53.1641 99L53 98.9322Z" fill="#FF9900"/>
<path d="M668 1644.07L646.713 1665H453V1664.84H646.646L667.836 1644L668 1644.07Z" fill="#FF9900"/>
<path d="M53.0919 16.9081L34 36L34.1155 36.116L53.2074 17.0241L53.0919 16.9081Z" fill="#FF9900"/>
<path d="M627.168 106C627.125 106 627.083 105.983 627.049 105.951C626.984 105.886 626.984 105.78 627.049 105.714L639.714 93.0491C639.78 92.9836 639.885 92.9836 639.951 93.0491C640.016 93.1146 640.016 93.2204 639.951 93.2859L627.286 105.951C627.252 105.985 627.21 106 627.167 106H627.168Z" fill="#FF9900"/>
<path d="M606.831 45L599 52.8312V53H599.937L606.998 45.9408V45H606.829H606.831ZM600.136 45L599 46.1382V47.246L601.244 45H600.136ZM603.483 45L599 49.4847V50.5925L604.591 45H603.481H603.483ZM603.285 53L607 49.2873V48.1795L602.18 53H603.287H603.285ZM606.632 53L606.998 52.6338V51.5278L605.524 53H606.632Z" fill="#FF9900"/>
<path d="M11.7106 34V22.2894H0V21.709H11.7106V10H12.2894V21.709H24V22.2894H12.2894V34H11.7106Z" fill="#FF9900"/>
<path d="M715.711 24V12.2894H704V11.709H715.711V0H716.289V11.709H728V12.2894H716.289V24H715.711Z" fill="#FF9900"/>
<path d="M61 1665H146V1664H61V1665Z" fill="#FF9900"/>
<path d="M58.5012 1662C59.8785 1662 61 1663.12 61 1664.5C61 1665.88 59.8785 1667 58.5012 1667C57.1239 1667 56 1665.88 56 1664.5C56 1663.12 57.1217 1662 58.5012 1662ZM58.5012 1666.78C59.7551 1666.78 60.7757 1665.76 60.7757 1664.5C60.7757 1663.25 59.7551 1662.22 58.5012 1662.22C57.2473 1662.22 56.2243 1663.24 56.2243 1664.5C56.2243 1665.76 57.245 1666.78 58.5012 1666.78Z" fill="#FF9900"/>
<path d="M33 1681H93V1680H33V1681Z" fill="#FF9900"/>
</svg>
