<svg width="328" height="410" viewBox="0 0 328 410" fill="none" xmlns="http://www.w3.org/2000/svg">
<rect width="328" height="410" fill="black"/>
<path opacity="0.2" d="M2 3H1V407H2V3Z" fill="white" fill-opacity="0.5"/>
<path opacity="0.2" d="M23 3H22V407H23V3Z" fill="white" fill-opacity="0.5"/>
<path opacity="0.2" d="M43 3H42V407H43V3Z" fill="white" fill-opacity="0.5"/>
<path opacity="0.5" d="M63 3H62V407H63V3Z" fill="white" fill-opacity="0.5"/>
<path opacity="0.2" d="M83 3H82V407H83V3Z" fill="white" fill-opacity="0.5"/>
<path opacity="0.2" d="M103 3H102V407H103V3Z" fill="white" fill-opacity="0.5"/>
<path opacity="0.2" d="M124 3H123V407H124V3Z" fill="white" fill-opacity="0.5"/>
<path opacity="0.2" d="M144 3H143V407H144V3Z" fill="white" fill-opacity="0.5"/>
<path opacity="0.5" d="M165 3H164V407H165V3Z" fill="white" fill-opacity="0.5"/>
<path opacity="0.2" d="M185 3H184V407H185V3Z" fill="white" fill-opacity="0.5"/>
<path opacity="0.2" d="M205 3H204V407H205V3Z" fill="white" fill-opacity="0.5"/>
<path opacity="0.2" d="M225 3H224V407H225V3Z" fill="white" fill-opacity="0.5"/>
<path opacity="0.2" d="M246 3H245V407H246V3Z" fill="white" fill-opacity="0.5"/>
<path opacity="0.5" d="M266 3H265V407H266V3Z" fill="white" fill-opacity="0.5"/>
<path opacity="0.2" d="M286 3H285V407H286V3Z" fill="white" fill-opacity="0.5"/>
<path opacity="0.2" d="M306 3H305V407H306V3Z" fill="white" fill-opacity="0.5"/>
<path opacity="0.2" d="M327 3H326V407H327V3Z" fill="white" fill-opacity="0.5"/>
<path opacity="0.5" d="M366 3H-39V4H366V3Z" fill="white" fill-opacity="0.5"/>
<path opacity="0.2" d="M367 23H-39V24H367V23Z" fill="white" fill-opacity="0.5"/>
<path opacity="0.2" d="M367 43H-39V44H367V43Z" fill="white" fill-opacity="0.5"/>
<path opacity="0.2" d="M367 63H-39V64H367V63Z" fill="white" fill-opacity="0.5"/>
<path opacity="0.2" d="M367 83H-39V84H367V83Z" fill="white" fill-opacity="0.5"/>
<path opacity="0.5" d="M367 104H-39V105H367V104Z" fill="white" fill-opacity="0.5"/>
<path opacity="0.2" d="M367 124H-39V125H367V124Z" fill="white" fill-opacity="0.5"/>
<path opacity="0.2" d="M367 144H-39V145H367V144Z" fill="white" fill-opacity="0.5"/>
<path opacity="0.2" d="M367 164H-39V165H367V164Z" fill="white" fill-opacity="0.5"/>
<path opacity="0.2" d="M367 184H-39V185H367V184Z" fill="white" fill-opacity="0.5"/>
<path opacity="0.5" d="M367 205H-39V206H367V205Z" fill="white" fill-opacity="0.5"/>
<path opacity="0.2" d="M367 224H-39V225H367V224Z" fill="white" fill-opacity="0.5"/>
<path opacity="0.2" d="M367 245H-39V246H367V245Z" fill="white" fill-opacity="0.5"/>
<path opacity="0.2" d="M367 265H-39V266H367V265Z" fill="white" fill-opacity="0.5"/>
<path opacity="0.2" d="M367 285H-39V286H367V285Z" fill="white" fill-opacity="0.5"/>
<path opacity="0.5" d="M367 306H-39V307H367V306Z" fill="white" fill-opacity="0.5"/>
<path opacity="0.2" d="M367 326H-39V327H367V326Z" fill="white" fill-opacity="0.5"/>
<path opacity="0.2" d="M367 346H-39V347H367V346Z" fill="white" fill-opacity="0.5"/>
<path opacity="0.2" d="M367 366H-39V367H367V366Z" fill="white" fill-opacity="0.5"/>
<path opacity="0.2" d="M367 386H-39V387H367V386Z" fill="white" fill-opacity="0.5"/>
<path opacity="0.5" d="M366 406H-39V407H366V406Z" fill="white" fill-opacity="0.5"/>
<path d="M63 0H62V7H63V0Z" fill="white" fill-opacity="0.5"/>
<path d="M66 3H59V4H66V3Z" fill="white" fill-opacity="0.5"/>
<path d="M63 101H62V108H63V101Z" fill="white" fill-opacity="0.5"/>
<path d="M66 104H59V105H66V104Z" fill="white" fill-opacity="0.5"/>
<path d="M63 202H62V209H63V202Z" fill="white" fill-opacity="0.5"/>
<path d="M66 205H59V206H66V205Z" fill="white" fill-opacity="0.5"/>
<path d="M63 302H62V309H63V302Z" fill="white" fill-opacity="0.5"/>
<path d="M66 305H59V306H66V305Z" fill="white" fill-opacity="0.5"/>
<path d="M63 403H62V410H63V403Z" fill="white" fill-opacity="0.5"/>
<path d="M66 406H59V407H66V406Z" fill="white" fill-opacity="0.5"/>
<path d="M164 0H163V7H164V0Z" fill="white" fill-opacity="0.5"/>
<path d="M167 3H160V4H167V3Z" fill="white" fill-opacity="0.5"/>
<path d="M164 101H163V108H164V101Z" fill="white" fill-opacity="0.5"/>
<path d="M167 104H160V105H167V104Z" fill="white" fill-opacity="0.5"/>
<path d="M164 202H163V209H164V202Z" fill="white" fill-opacity="0.5"/>
<path d="M167 205H160V206H167V205Z" fill="white" fill-opacity="0.5"/>
<path d="M164 302H163V309H164V302Z" fill="white" fill-opacity="0.5"/>
<path d="M167 305H160V306H167V305Z" fill="white" fill-opacity="0.5"/>
<path d="M164 403H163V410H164V403Z" fill="white" fill-opacity="0.5"/>
<path d="M167 406H160V407H167V406Z" fill="white" fill-opacity="0.5"/>
<path d="M266 0H265V7H266V0Z" fill="white" fill-opacity="0.5"/>
<path d="M269 3H262V4H269V3Z" fill="white" fill-opacity="0.5"/>
<path d="M266 101H265V108H266V101Z" fill="white" fill-opacity="0.5"/>
<path d="M269 104H262V105H269V104Z" fill="white" fill-opacity="0.5"/>
<path d="M266 202H265V209H266V202Z" fill="white" fill-opacity="0.5"/>
<path d="M269 205H262V206H269V205Z" fill="white" fill-opacity="0.5"/>
<path d="M266 302H265V309H266V302Z" fill="white" fill-opacity="0.5"/>
<path d="M269 305H262V306H269V305Z" fill="white" fill-opacity="0.5"/>
<path d="M266 403H265V410H266V403Z" fill="white" fill-opacity="0.5"/>
<path d="M269 406H262V407H269V406Z" fill="white" fill-opacity="0.5"/>
<path d="M13 53H12V54H13V53Z" fill="white" fill-opacity="0.5"/>
<path d="M114 53H113V54H114V53Z" fill="white" fill-opacity="0.5"/>
<path d="M215 53H214V54H215V53Z" fill="white" fill-opacity="0.5"/>
<path d="M317 53H316V54H317V53Z" fill="white" fill-opacity="0.5"/>
<path d="M13 154H12V155H13V154Z" fill="white" fill-opacity="0.5"/>
<path d="M114 154H113V155H114V154Z" fill="white" fill-opacity="0.5"/>
<path d="M215 154H214V155H215V154Z" fill="white" fill-opacity="0.5"/>
<path d="M317 154H316V155H317V154Z" fill="white" fill-opacity="0.5"/>
<path d="M13 255H12V256H13V255Z" fill="white" fill-opacity="0.5"/>
<path d="M114 255H113V256H114V255Z" fill="white" fill-opacity="0.5"/>
<path d="M215 255H214V256H215V255Z" fill="white" fill-opacity="0.5"/>
<path d="M317 255H316V256H317V255Z" fill="white" fill-opacity="0.5"/>
<path d="M13 356H12V357H13V356Z" fill="white" fill-opacity="0.5"/>
<path d="M114 356H113V357H114V356Z" fill="white" fill-opacity="0.5"/>
<path d="M215 356H214V357H215V356Z" fill="white" fill-opacity="0.5"/>
<path d="M317 356H316V357H317V356Z" fill="white" fill-opacity="0.5"/>
</svg>
