<svg width="1400" height="583" viewBox="0 0 1400 583" fill="none" xmlns="http://www.w3.org/2000/svg">
<g clip-path="url(#clip0_2013_14580)">
<rect width="1400" height="583" fill="black"/>
<path opacity="0.5" d="M4 -428H0V968H4V-428Z" fill="white" fill-opacity="0.5"/>
<path opacity="0.2" d="M71 -429H67V970H71V-429Z" fill="white" fill-opacity="0.5"/>
<path opacity="0.2" d="M141 -429H137V970H141V-429Z" fill="white" fill-opacity="0.5"/>
<path opacity="0.2" d="M212 -429H208V970H212V-429Z" fill="white" fill-opacity="0.5"/>
<path opacity="0.2" d="M282 -429H278V970H282V-429Z" fill="white" fill-opacity="0.5"/>
<path opacity="0.5" d="M352 -429H348V970H352V-429Z" fill="white" fill-opacity="0.5"/>
<path opacity="0.2" d="M421 -429H417V970H421V-429Z" fill="white" fill-opacity="0.5"/>
<path opacity="0.2" d="M491 -429H487V970H491V-429Z" fill="white" fill-opacity="0.5"/>
<path opacity="0.2" d="M562 -429H558V970H562V-429Z" fill="white" fill-opacity="0.5"/>
<path opacity="0.2" d="M632 -429H628V970H632V-429Z" fill="white" fill-opacity="0.5"/>
<path opacity="0.5" d="M702 -429H698V970H702V-429Z" fill="white" fill-opacity="0.5"/>
<path opacity="0.2" d="M771 -429H767V970H771V-429Z" fill="white" fill-opacity="0.5"/>
<path opacity="0.2" d="M841 -429H837V970H841V-429Z" fill="white" fill-opacity="0.5"/>
<path opacity="0.2" d="M912 -429H908V970H912V-429Z" fill="white" fill-opacity="0.5"/>
<path opacity="0.2" d="M982 -429H978V970H982V-429Z" fill="white" fill-opacity="0.5"/>
<path opacity="0.5" d="M1052 -429H1048V970H1052V-429Z" fill="white" fill-opacity="0.5"/>
<path opacity="0.2" d="M1122 -429H1118V970H1122V-429Z" fill="white" fill-opacity="0.5"/>
<path opacity="0.2" d="M1191 -429H1187V970H1191V-429Z" fill="white" fill-opacity="0.5"/>
<path opacity="0.2" d="M1262 -429H1258V970H1262V-429Z" fill="white" fill-opacity="0.5"/>
<path opacity="0.2" d="M1332 -429H1328V970H1332V-429Z" fill="white" fill-opacity="0.5"/>
<path opacity="0.5" d="M1399 -428H1395V968H1399V-428Z" fill="white" fill-opacity="0.5"/>
<path opacity="0.2" d="M1400 58H0V62H1400V58Z" fill="white" fill-opacity="0.5"/>
<path opacity="0.2" d="M1400 128H0V132H1400V128Z" fill="white" fill-opacity="0.5"/>
<path opacity="0.2" d="M1400 198H0V202H1400V198Z" fill="white" fill-opacity="0.5"/>
<path opacity="0.5" d="M1400 269H0V273H1400V269Z" fill="white" fill-opacity="0.5"/>
<path opacity="0.2" d="M1400 338H0V342H1400V338Z" fill="white" fill-opacity="0.5"/>
<path opacity="0.2" d="M1400 408H0V412H1400V408Z" fill="white" fill-opacity="0.5"/>
<path opacity="0.2" d="M1400 478H0V482H1400V478Z" fill="white" fill-opacity="0.5"/>
<path opacity="0.2" d="M1400 548H0V552H1400V548Z" fill="white" fill-opacity="0.5"/>
<path d="M4 258H0V282H4V258Z" fill="white" fill-opacity="0.5"/>
<path d="M13 269H-11V273H13V269Z" fill="white" fill-opacity="0.5"/>
<path d="M1401 258H1397V282H1401V258Z" fill="white" fill-opacity="0.5"/>
<path d="M1410 269H1386V273H1410V269Z" fill="white" fill-opacity="0.5"/>
<path d="M353 258H349V282H353V258Z" fill="white" fill-opacity="0.5"/>
<path d="M362 269H338V273H362V269Z" fill="white" fill-opacity="0.5"/>
<path d="M703 258H699V282H703V258Z" fill="white" fill-opacity="0.5"/>
<path d="M712 269H688V273H712V269Z" fill="white" fill-opacity="0.5"/>
<path d="M1051 258H1047V282H1051V258Z" fill="white" fill-opacity="0.5"/>
<path d="M1060 269H1036V273H1060V269Z" fill="white" fill-opacity="0.5"/>
<path d="M179 94H175V98H179V94Z" fill="white" fill-opacity="0.5"/>
<path d="M527 94H523V98H527V94Z" fill="white" fill-opacity="0.5"/>
<path d="M876 94H872V98H876V94Z" fill="white" fill-opacity="0.5"/>
<path d="M1226 94H1222V98H1226V94Z" fill="white" fill-opacity="0.5"/>
<path d="M179 442H175V446H179V442Z" fill="white" fill-opacity="0.5"/>
<path d="M527 442H523V446H527V442Z" fill="white" fill-opacity="0.5"/>
<path d="M876 442H872V446H876V442Z" fill="white" fill-opacity="0.5"/>
<path d="M1226 442H1222V446H1226V442Z" fill="white" fill-opacity="0.5"/>
</g>
<defs>
<clipPath id="clip0_2013_14580">
<rect width="1400" height="583" fill="white"/>
</clipPath>
</defs>
</svg>
