<svg width="256" height="410" viewBox="0 0 256 410" fill="none" xmlns="http://www.w3.org/2000/svg">
<rect x="-36" width="328" height="410" fill="black"/>
<path opacity="0.2" d="M7 3H6V407H7V3Z" fill="white" fill-opacity="0.5"/>
<path opacity="0.5" d="M27 3H26V407H27V3Z" fill="white" fill-opacity="0.5"/>
<path opacity="0.2" d="M47 3H46V407H47V3Z" fill="white" fill-opacity="0.5"/>
<path opacity="0.2" d="M67 3H66V407H67V3Z" fill="white" fill-opacity="0.5"/>
<path opacity="0.2" d="M88 3H87V407H88V3Z" fill="white" fill-opacity="0.5"/>
<path opacity="0.2" d="M108 3H107V407H108V3Z" fill="white" fill-opacity="0.5"/>
<path opacity="0.5" d="M129 3H128V407H129V3Z" fill="white" fill-opacity="0.5"/>
<path opacity="0.2" d="M149 3H148V407H149V3Z" fill="white" fill-opacity="0.5"/>
<path opacity="0.2" d="M169 3H168V407H169V3Z" fill="white" fill-opacity="0.5"/>
<path opacity="0.2" d="M189 3H188V407H189V3Z" fill="white" fill-opacity="0.5"/>
<path opacity="0.2" d="M210 3H209V407H210V3Z" fill="white" fill-opacity="0.5"/>
<path opacity="0.5" d="M230 3H229V407H230V3Z" fill="white" fill-opacity="0.5"/>
<path opacity="0.2" d="M250 3H249V407H250V3Z" fill="white" fill-opacity="0.5"/>
<path opacity="0.5" d="M330 3H-75V4H330V3Z" fill="white" fill-opacity="0.5"/>
<path opacity="0.2" d="M331 23H-75V24H331V23Z" fill="white" fill-opacity="0.5"/>
<path opacity="0.2" d="M331 43H-75V44H331V43Z" fill="white" fill-opacity="0.5"/>
<path opacity="0.2" d="M331 63H-75V64H331V63Z" fill="white" fill-opacity="0.5"/>
<path opacity="0.2" d="M331 83H-75V84H331V83Z" fill="white" fill-opacity="0.5"/>
<path opacity="0.5" d="M331 104H-75V105H331V104Z" fill="white" fill-opacity="0.5"/>
<path opacity="0.2" d="M331 124H-75V125H331V124Z" fill="white" fill-opacity="0.5"/>
<path opacity="0.2" d="M331 144H-75V145H331V144Z" fill="white" fill-opacity="0.5"/>
<path opacity="0.2" d="M331 164H-75V165H331V164Z" fill="white" fill-opacity="0.5"/>
<path opacity="0.2" d="M331 184H-75V185H331V184Z" fill="white" fill-opacity="0.5"/>
<path opacity="0.5" d="M331 205H-75V206H331V205Z" fill="white" fill-opacity="0.5"/>
<path opacity="0.2" d="M331 224H-75V225H331V224Z" fill="white" fill-opacity="0.5"/>
<path opacity="0.2" d="M331 245H-75V246H331V245Z" fill="white" fill-opacity="0.5"/>
<path opacity="0.2" d="M331 265H-75V266H331V265Z" fill="white" fill-opacity="0.5"/>
<path opacity="0.2" d="M331 285H-75V286H331V285Z" fill="white" fill-opacity="0.5"/>
<path opacity="0.5" d="M331 306H-75V307H331V306Z" fill="white" fill-opacity="0.5"/>
<path opacity="0.2" d="M331 326H-75V327H331V326Z" fill="white" fill-opacity="0.5"/>
<path opacity="0.2" d="M331 346H-75V347H331V346Z" fill="white" fill-opacity="0.5"/>
<path opacity="0.2" d="M331 366H-75V367H331V366Z" fill="white" fill-opacity="0.5"/>
<path opacity="0.2" d="M331 386H-75V387H331V386Z" fill="white" fill-opacity="0.5"/>
<path opacity="0.5" d="M330 406H-75V407H330V406Z" fill="white" fill-opacity="0.5"/>
<path d="M27 0H26V7H27V0Z" fill="white" fill-opacity="0.5"/>
<path d="M30 3H23V4H30V3Z" fill="white" fill-opacity="0.5"/>
<path d="M27 101H26V108H27V101Z" fill="white" fill-opacity="0.5"/>
<path d="M30 104H23V105H30V104Z" fill="white" fill-opacity="0.5"/>
<path d="M27 202H26V209H27V202Z" fill="white" fill-opacity="0.5"/>
<path d="M30 205H23V206H30V205Z" fill="white" fill-opacity="0.5"/>
<path d="M27 302H26V309H27V302Z" fill="white" fill-opacity="0.5"/>
<path d="M30 305H23V306H30V305Z" fill="white" fill-opacity="0.5"/>
<path d="M27 403H26V410H27V403Z" fill="white" fill-opacity="0.5"/>
<path d="M30 406H23V407H30V406Z" fill="white" fill-opacity="0.5"/>
<path d="M128 0H127V7H128V0Z" fill="white" fill-opacity="0.5"/>
<path d="M131 3H124V4H131V3Z" fill="white" fill-opacity="0.5"/>
<path d="M128 101H127V108H128V101Z" fill="white" fill-opacity="0.5"/>
<path d="M131 104H124V105H131V104Z" fill="white" fill-opacity="0.5"/>
<path d="M128 202H127V209H128V202Z" fill="white" fill-opacity="0.5"/>
<path d="M131 205H124V206H131V205Z" fill="white" fill-opacity="0.5"/>
<path d="M128 302H127V309H128V302Z" fill="white" fill-opacity="0.5"/>
<path d="M131 305H124V306H131V305Z" fill="white" fill-opacity="0.5"/>
<path d="M128 403H127V410H128V403Z" fill="white" fill-opacity="0.5"/>
<path d="M131 406H124V407H131V406Z" fill="white" fill-opacity="0.5"/>
<path d="M230 0H229V7H230V0Z" fill="white" fill-opacity="0.5"/>
<path d="M233 3H226V4H233V3Z" fill="white" fill-opacity="0.5"/>
<path d="M230 101H229V108H230V101Z" fill="white" fill-opacity="0.5"/>
<path d="M233 104H226V105H233V104Z" fill="white" fill-opacity="0.5"/>
<path d="M230 202H229V209H230V202Z" fill="white" fill-opacity="0.5"/>
<path d="M233 205H226V206H233V205Z" fill="white" fill-opacity="0.5"/>
<path d="M230 302H229V309H230V302Z" fill="white" fill-opacity="0.5"/>
<path d="M233 305H226V306H233V305Z" fill="white" fill-opacity="0.5"/>
<path d="M230 403H229V410H230V403Z" fill="white" fill-opacity="0.5"/>
<path d="M233 406H226V407H233V406Z" fill="white" fill-opacity="0.5"/>
<path d="M78 53H77V54H78V53Z" fill="white" fill-opacity="0.5"/>
<path d="M179 53H178V54H179V53Z" fill="white" fill-opacity="0.5"/>
<path d="M78 154H77V155H78V154Z" fill="white" fill-opacity="0.5"/>
<path d="M179 154H178V155H179V154Z" fill="white" fill-opacity="0.5"/>
<path d="M78 255H77V256H78V255Z" fill="white" fill-opacity="0.5"/>
<path d="M179 255H178V256H179V255Z" fill="white" fill-opacity="0.5"/>
<path d="M78 356H77V357H78V356Z" fill="white" fill-opacity="0.5"/>
<path d="M179 356H178V357H179V356Z" fill="white" fill-opacity="0.5"/>
</svg>
