<svg width="167" height="42" viewBox="0 0 167 42" fill="none" xmlns="http://www.w3.org/2000/svg">
<path d="M85.7514 17.4353L84.0907 12.6133H77.5988L75.9382 17.4353H73L79.3176 0H82.4067L88.7127 17.4353H85.7514ZM83.3706 10.1666L81.7564 5.41588C81.6945 5.21001 81.6054 4.92101 81.4893 4.54886C81.3732 4.1688 81.257 3.78478 81.1409 3.3968C81.0248 3.0009 80.928 2.66835 80.8506 2.39914C80.7731 2.72377 80.6764 3.088 80.5602 3.49182C80.4518 3.88771 80.3434 4.25986 80.2351 4.60825C80.1344 4.95664 80.057 5.22585 80.0028 5.41588L78.3769 10.1666H83.3706Z" fill="white"/>
<path d="M104.256 0.0712612L98.322 17.4353H95.3722L89.4379 0.0712612H92.2947L95.8716 10.9505C95.98 11.2672 96.0961 11.6513 96.22 12.1026C96.3516 12.5539 96.4716 13.0092 96.58 13.4684C96.6961 13.9277 96.7852 14.3354 96.8471 14.6918C96.9091 14.3354 96.9942 13.9277 97.1026 13.4684C97.2187 13.0092 97.3387 12.5539 97.4626 12.1026C97.5865 11.6513 97.7026 11.2633 97.811 10.9386L101.4 0.0712612H104.256Z" fill="white"/>
<path d="M117.721 17.4353L116.061 12.6133H109.569L107.908 17.4353H104.97L111.288 0H114.377L120.683 17.4353H117.721ZM115.341 10.1666L113.726 5.41588C113.664 5.21001 113.575 4.92101 113.459 4.54886C113.343 4.1688 113.227 3.78478 113.111 3.3968C112.995 3.0009 112.898 2.66835 112.82 2.39914C112.743 2.72377 112.646 3.088 112.53 3.49182C112.422 3.88771 112.313 4.25986 112.205 4.60825C112.104 4.95664 112.027 5.22585 111.973 5.41588L110.347 10.1666H115.341Z" fill="white"/>
<path d="M129.525 17.4353H126.727V2.49415H121.756V0.0712612H134.484V2.49415H129.525V17.4353Z" fill="white"/>
<path d="M148.321 17.4353L146.66 12.6133H140.168L138.508 17.4353H135.569L141.887 0H144.976L151.282 17.4353H148.321ZM145.94 10.1666L144.326 5.41588C144.264 5.21001 144.175 4.92101 144.059 4.54886C143.943 4.1688 143.826 3.78478 143.71 3.3968C143.594 3.0009 143.497 2.66835 143.42 2.39914C143.343 2.72377 143.246 3.088 143.13 3.49182C143.021 3.88771 142.913 4.25986 142.804 4.60825C142.704 4.95664 142.626 5.22585 142.572 5.41588L140.946 10.1666H145.94Z" fill="white"/>
<path d="M159.01 0.0712612C160.473 0.0712612 161.681 0.253374 162.633 0.6176C163.593 0.981826 164.306 1.53608 164.77 2.28037C165.243 3.02466 165.479 3.97085 165.479 5.11895C165.479 5.97409 165.324 6.70254 165.014 7.30431C164.704 7.90607 164.298 8.4049 163.795 8.8008C163.291 9.1967 162.753 9.51342 162.18 9.75095L167 17.4353H163.853L159.753 10.4754H157.024V17.4353H154.237V0.0712612H159.01ZM158.824 2.44665H157.024V8.12382H158.952C160.245 8.12382 161.182 7.87836 161.762 7.38745C162.351 6.89653 162.645 6.17204 162.645 5.21397C162.645 4.20839 162.331 3.49577 161.704 3.07612C161.085 2.65647 160.125 2.44665 158.824 2.44665Z" fill="white"/>
<path d="M82.0816 32.3322H88.4224V41.0498C87.5321 41.3507 86.6107 41.5843 85.6584 41.7506C84.7062 41.9169 83.6377 42 82.4532 42C80.7267 42 79.2634 41.6516 78.0634 40.9548C76.8711 40.2501 75.9653 39.2327 75.3459 37.9025C74.7265 36.5643 74.4168 34.953 74.4168 33.0686C74.4168 31.2553 74.7613 29.6836 75.4504 28.3534C76.1394 27.0153 77.1421 25.982 78.4582 25.2535C79.7744 24.5172 81.3693 24.149 83.2429 24.149C84.1642 24.149 85.0546 24.244 85.9139 24.434C86.7811 24.6161 87.5746 24.8695 88.2947 25.1942L87.3191 27.5458C86.7462 27.2687 86.1036 27.0351 85.3913 26.845C84.6791 26.655 83.9397 26.56 83.1732 26.56C81.9577 26.56 80.9086 26.8292 80.026 27.3676C79.1512 27.906 78.4776 28.6662 78.0053 29.648C77.533 30.6219 77.2969 31.774 77.2969 33.1042C77.2969 34.3948 77.4866 35.5271 77.866 36.501C78.2453 37.4749 78.8376 38.235 79.6428 38.7814C80.4557 39.3198 81.5048 39.589 82.79 39.589C83.4326 39.589 83.9784 39.5534 84.4274 39.4821C84.8765 39.4108 85.2907 39.3316 85.6701 39.2446V34.7669H82.0816V32.3322Z" fill="white"/>
<path d="M103.722 41.7625L102.061 36.9404H95.5697L93.909 41.7625H90.9708L97.2884 24.3271H100.378L106.684 41.7625H103.722ZM101.341 34.4938L99.7272 29.743C99.6653 29.5371 99.5762 29.2481 99.4601 28.876C99.344 28.4959 99.2278 28.1119 99.1117 27.7239C98.9956 27.328 98.8988 26.9955 98.8214 26.7263C98.744 27.0509 98.6472 27.4151 98.531 27.819C98.4227 28.2148 98.3143 28.587 98.2059 28.9354C98.1052 29.2838 98.0278 29.553 97.9736 29.743L96.3477 34.4938H101.341Z" fill="white"/>
<path d="M116.966 41.7625L112.077 27.2607H111.973C111.996 27.5854 112.023 28.0288 112.054 28.591C112.085 29.1531 112.112 29.7549 112.135 30.3962C112.159 31.0376 112.17 31.6512 112.17 32.2372V41.7625H109.638V24.3984H113.552L118.255 38.2588H118.325L123.191 24.3984H127.093V41.7625H124.434V32.0946C124.434 31.5641 124.441 30.9901 124.457 30.3725C124.48 29.7549 124.503 29.169 124.527 28.6147C124.558 28.0604 124.581 27.617 124.596 27.2845H124.503L119.428 41.7625H116.966Z" fill="white"/>
<path d="M141.894 41.7625H132.278V24.3984H141.894V26.7975H135.065V31.5127H141.464V33.8999H135.065V39.3514H141.894V41.7625Z" fill="white"/>
<path d="M156.078 37.0354C156.078 38.0648 155.831 38.9516 155.335 39.6959C154.847 40.4402 154.143 41.0103 153.222 41.4062C152.308 41.802 151.216 42 149.947 42C149.327 42 148.735 41.9644 148.17 41.8931C147.605 41.8218 147.07 41.7189 146.567 41.5843C146.072 41.4418 145.619 41.2715 145.208 41.0736V38.3894C145.897 38.6982 146.668 38.9793 147.519 39.2327C148.371 39.4781 149.238 39.6009 150.121 39.6009C150.841 39.6009 151.437 39.5058 151.909 39.3158C152.389 39.1179 152.745 38.8407 152.978 38.4844C153.21 38.1202 153.326 37.6966 153.326 37.2136C153.326 36.6989 153.191 36.2634 152.92 35.9071C152.649 35.5508 152.238 35.2262 151.689 34.9332C151.147 34.6323 150.465 34.3117 149.645 33.9712C149.087 33.7416 148.553 33.4803 148.042 33.1873C147.539 32.8944 147.09 32.5499 146.695 32.154C146.3 31.7581 145.987 31.291 145.754 30.7526C145.53 30.2062 145.417 29.5649 145.417 28.8285C145.417 27.8467 145.646 27.0074 146.103 26.3106C146.567 25.6138 147.218 25.0793 148.054 24.7072C148.898 24.3351 149.881 24.149 151.003 24.149C151.894 24.149 152.73 24.244 153.512 24.434C154.302 24.6241 155.076 24.8933 155.835 25.2417L154.952 27.5339C154.255 27.2409 153.578 27.0074 152.92 26.8332C152.269 26.659 151.603 26.5719 150.922 26.5719C150.334 26.5719 149.834 26.6629 149.424 26.845C149.014 27.0272 148.7 27.2845 148.483 27.617C148.274 27.9417 148.17 28.3297 148.17 28.781C148.17 29.2877 148.29 29.7153 148.53 30.0637C148.778 30.4042 149.157 30.7169 149.668 31.002C150.187 31.287 150.852 31.6037 151.665 31.9521C152.602 32.348 153.396 32.7637 154.046 33.1992C154.704 33.6347 155.207 34.1573 155.556 34.7669C155.904 35.3687 156.078 36.1249 156.078 37.0354Z" fill="white"/>
<path fill-rule="evenodd" clip-rule="evenodd" d="M27.5657 28.2307C35.4563 27.1552 40.9482 26.3101 44.2166 25.4371L44.2236 25.4441C47.6955 24.5221 52.5842 22.5456 51.0341 14.6954C49.2852 5.82275 44.5043 5.52181 41.1897 5.31316C40.8619 5.29253 40.5485 5.2728 40.2538 5.24578C36.9783 4.94546 31.9844 4.72198 23.4626 5.47627C14.9407 6.23056 11.546 10.9798 12.8366 18.3202C14.1271 25.6606 19.6751 29.3063 27.5657 28.2307ZM41.6005 3.45783C48.965 4.10736 51.3638 8.06041 52.4158 13.103L52.3808 13.1379C52.9769 16.0084 53.1523 19.7031 52.8647 21.2535C51.967 26.0168 45.3248 31.7578 41.2077 32.3654C39.2221 32.6584 39.2708 31.9411 39.3239 31.1574C39.381 30.316 39.4432 29.3981 36.9994 29.5717C35.1058 29.7109 32.6437 30.9386 29.7988 32.3571C25.3622 34.5693 19.9947 37.2458 14.4007 36.9819C-2.2713 36.1578 -1.9206 19.4796 2.8348 14.6325C8.03909 9.33851 14.3305 4.61721 20.4606 3.75117C27.4736 2.85979 34.5653 2.76137 41.6005 3.45783ZM23.7289 15.6411C23.5757 14.3995 23.7297 13.2737 24.0682 12.4645C24.4156 11.6337 24.886 11.274 25.2962 11.2239C25.7063 11.1739 26.2503 11.41 26.7893 12.1326C27.1256 12.5834 27.42 13.1782 27.6286 13.8738C27.0796 13.6773 26.4703 13.754 25.9445 14.1486C24.9404 14.9022 24.6216 16.5299 25.2324 17.7841C25.6431 18.6274 26.3694 19.0872 27.1065 19.0689C26.8512 19.3718 26.576 19.5199 26.3236 19.5507C25.9134 19.6007 25.3695 19.3646 24.8304 18.642C24.3053 17.9381 23.8821 16.8826 23.7289 15.6411ZM25.1289 9.86836C24.0132 10.0044 23.2359 10.8968 22.7996 11.9402C22.3543 13.005 22.1886 14.3752 22.3653 15.8074C22.542 17.2395 23.0359 18.5293 23.7269 19.4555C24.404 20.3631 25.3752 21.0423 26.4908 20.9063C27.6065 20.7702 28.3838 19.8778 28.8201 18.8345C29.2654 17.7696 29.4312 16.3994 29.2544 14.9673C29.0777 13.5351 28.5838 12.2454 27.8928 11.3191C27.2157 10.4115 26.2446 9.73231 25.1289 9.86836ZM40.0775 11.8988C39.6766 12.57 39.3848 13.5545 39.3394 14.6902C39.2941 15.8259 39.5065 16.8303 39.8526 17.531C40.2123 18.2592 40.6253 18.5065 40.9216 18.5182C41.1687 18.5279 41.5099 18.3807 41.8581 17.9267C41.486 17.9173 41.1196 17.7689 40.8132 17.472C40.0335 16.7164 39.9376 15.2848 40.599 14.2746C41.1366 13.4533 42.0091 13.1632 42.7356 13.4893C42.6493 12.9076 42.4928 12.3952 42.2908 11.9861C41.9311 11.2579 41.5181 11.0107 41.2218 10.999C40.9256 10.9873 40.4942 11.2012 40.0775 11.8988ZM38.8963 11.2015C39.4192 10.326 40.2368 9.59326 41.2763 9.63429C42.3158 9.67531 43.0725 10.4702 43.524 11.3841C43.989 12.3256 44.2293 13.5636 44.1767 14.8811C44.1241 16.1986 43.7858 17.4137 43.2472 18.3156C42.7243 19.1911 41.9066 19.9239 40.8671 19.8828C39.8276 19.8418 39.0709 19.047 38.6195 18.133C38.1544 17.1915 37.9141 15.9535 37.9667 14.636C38.0193 13.3185 38.3576 12.1034 38.8963 11.2015ZM37.7083 22.616C37.954 22.3286 37.9188 21.8977 37.6298 21.6534C37.3407 21.4092 36.9072 21.4441 36.6615 21.7315C36.1653 22.3118 35.2574 22.6588 34.4133 22.7093C33.5383 22.7616 32.5811 22.5872 32.0585 22.0406C32.0333 22.0061 32.0044 21.9735 31.9719 21.9432L31.9453 21.9185C31.6797 21.6715 31.2664 21.6731 31.0028 21.9222C30.7391 22.1713 30.7166 22.5816 30.9513 22.8578C31.8969 23.9708 33.48 24.1334 34.4958 24.0726C35.5759 24.0079 36.893 23.5696 37.7083 22.616Z" fill="white"/>
</svg>
